<svg xmlns="http://www.w3.org/2000/svg" xmlns:xlink="http://www.w3.org/1999/xlink" id="Layer_1" x="0" y="0" enable-background="new 0 0 1080 1080" version="1.1" viewBox="0 0 1080 1080" xml:space="preserve"><style type="text/css">.st0{clip-path:url(#SVGID_2_)}.st1,.st2{fill:#39cefd}.st2{clip-path:url(#SVGID_4_)}.st3{clip-path:url(#SVGID_6_);fill:#03569b}.st4{clip-path:url(#SVGID_8_);fill:url(#SVGID_9_)}.st5{clip-path:url(#SVGID_11_)}.st6{fill:#16b9fd}.st7{fill:url(#SVGID_12_)}</style><g><g><g><defs><path id="SVGID_1_" d="M959.4,500L679.8,779.7l279.6,279.7l0,0H639.9L520,939.5l0,0L360.2,779.7L639.9,500H959.4L959.4,500 L959.4,500z M639.9,20.7L120.6,540l159.8,159.8L959.4,20.7H639.9z"/></defs><clipPath id="SVGID_2_"><use overflow="visible" xlink:href="#SVGID_1_"/></clipPath><g class="st0"><g><polygon points="959.4 500 959.4 500 959.4 500 639.9 500 360.3 779.7 520 939.5" class="st1"/></g></g></g><g><defs><path id="SVGID_3_" d="M959.4,500L679.8,779.7l279.6,279.7l0,0H639.9L520,939.5l0,0L360.2,779.7L639.9,500H959.4L959.4,500 L959.4,500z M639.9,20.7L120.6,540l159.8,159.8L959.4,20.7H639.9z"/></defs><clipPath id="SVGID_4_"><use overflow="visible" xlink:href="#SVGID_3_"/></clipPath><polygon points="280.4 699.8 120.6 540 639.9 20.7 959.4 20.7" class="st2"/></g><g><defs><path id="SVGID_5_" d="M959.4,500L679.8,779.7l279.6,279.7l0,0H639.9L520,939.5l0,0L360.2,779.7L639.9,500H959.4L959.4,500 L959.4,500z M639.9,20.7L120.6,540l159.8,159.8L959.4,20.7H639.9z"/></defs><clipPath id="SVGID_6_"><use overflow="visible" xlink:href="#SVGID_5_"/></clipPath><polygon points="520 939.5 639.9 1059.3 959.4 1059.3 959.4 1059.3 679.8 779.7" class="st3"/></g><g><defs><path id="SVGID_7_" d="M959.4,500L679.8,779.7l279.6,279.7l0,0H639.9L520,939.5l0,0L360.2,779.7L639.9,500H959.4L959.4,500 L959.4,500z M639.9,20.7L120.6,540l159.8,159.8L959.4,20.7H639.9z"/></defs><clipPath id="SVGID_8_"><use overflow="visible" xlink:href="#SVGID_7_"/></clipPath><linearGradient id="SVGID_9_" x1="9514.54" x2="9990.6" y1="-6371.355" y2="-5895.295" gradientTransform="matrix(0.25 0 0 -0.25 -1812 -622.5)" gradientUnits="userSpaceOnUse"><stop offset="0" stop-color="#1A237E" stop-opacity=".4"/><stop offset="1" stop-color="#1A237E" stop-opacity="0"/></linearGradient><polygon points="520 939.5 757 857.4 679.8 779.7" class="st4"/></g><g><defs><path id="SVGID_10_" d="M959.4,500L679.8,779.7l279.6,279.7l0,0H639.9L520,939.5l0,0L360.2,779.7L639.9,500H959.4L959.4,500 L959.4,500z M639.9,20.7L120.6,540l159.8,159.8L959.4,20.7H639.9z"/></defs><clipPath id="SVGID_11_"><use overflow="visible" xlink:href="#SVGID_10_"/></clipPath><g class="st5"><rect width="226" height="226" x="407.1" y="666.7" class="st6" transform="matrix(0.7071 -0.7071 0.7071 0.7071 -399.0023 596.0814)"/></g></g></g><radialGradient id="SVGID_12_" cx="7824.659" cy="-2855.979" r="5082.889" gradientTransform="matrix(0.25 0 0 -0.25 -1812 -622.5)" gradientUnits="userSpaceOnUse"><stop offset="0" stop-color="#FFF" stop-opacity=".1"/><stop offset="1" stop-color="#FFF" stop-opacity="0"/></radialGradient><path d="M959.4,500L679.8,779.7l279.6,279.7l0,0H639.9L520,939.5l0,0L360.2,779.7L639.9,500H959.4L959.4,500L959.4,500 z M639.9,20.7L120.6,540l159.8,159.8L959.4,20.7H639.9z" class="st7"/></g></svg>